Henrik (35) is used to high-school buddies that party like they where still in their twenties. His mother cares for him like he┬┤s still a child. And he is in a relationship thatΓÇÖs based on goofing around. Now, Tone is pregnant and Henrik has to take a serious job, move into a conform duplex, calm down the partying, and start behaving like a father to be. Like an adult.

The Almost Man is a humorous drama that explores the feeling of moving on in life and how you can loose yourself in trying to please the expectations of the surroundings.

------------------

General
Complete name                    : C:Mer eller mindre mann (2012) NorwegianMer eller mindre mann.avi
Format                           : AVI
Format/Info                      : Audio Video Interleave
File size                        : 1.36 GiB
Duration                         : 1h 14mn
Overall bit rate                 : 2 620 Kbps
Writing application              : VirtualDubMod 1.5.10.2 (build 2540/release)
Writing library                  : VirtualDubMod build 2540/release

Video
ID                               : 0
Format                           : MPEG-4 Visual
Format profile                   : Advanced Simple@L5
Format settings, BVOP            : Yes
Format settings, QPel            : No
Format settings, GMC             : No warppoints
Format settings, Matrix          : Default (H.263)
Muxing mode                      : Packed bitstream
Codec ID                         : XVID
Codec ID/Hint                    : XviD
Duration                         : 1h 14mn
Bit rate                         : 2 163 Kbps
Width                            : 704 pixels
Height                           : 384 pixels
Display aspect ratio             : 16:9
Frame rate                       : 25.000 fps
Resolution                       : 8 bits
Colorimetry                      : 4:2:0
Scan type                        : Progressive
Bits/(Pixel*Frame)               : 0.320
Stream size                      : 1.12 GiB (83%)
Writing library                  : XviD 1.0.3 (UTC 2004-12-20)

Audio
ID                               : 1
Format                           : AC-3
Format/Info                      : Audio Coding 3
Codec ID                         : 2000
Duration                         : 1h 14mn
Bit rate mode                    : Constant
Bit rate                         : 448 Kbps
Channel(s)                       : 6 channels
Channel positions                : Front: L C R, Surround: L R, LFE
Sampling rate                    : 48.0 KHz
Stream size                      : 238 MiB (17%)
Alignment                        : Split accross interleaves
Interleave, duration             : 40 ms (1.00 video frame)
Interleave, preload duration     : 500 ms

-------------------
 
http://bayimg.com/naMNjaAEa 
http://bayimg.com/NaMNLAaea 
http://bayimg.com/naMNNAaea 
http://bayimg.com/oAMNiaaeA 
http://bayimg.com/aAmOMAAEa
